<svg width="21" height="22" viewBox="0 0 21 22" fill="none" xmlns="http://www.w3.org/2000/svg">
<rect width="21" height="22" fill="#E5E5E5"/>
<g id="iPhone 11 Pro / X - 7" filter="url(#filter0_ddddddd_202_2)">
<g clip-path="url(#clip0_202_2)">
<rect x="-54" y="-731" width="367" height="792" rx="43.2625" fill="#13140D"/>
<g id="Group">
<path id="Vector" d="M11.7126 0.971451C11.4097 0.686095 11.0088 0.5271 10.592 0.5271C10.1752 0.5271 9.77426 0.686095 9.47141 0.971451L1.57029 8.41354C1.32837 8.6417 1.13573 8.91668 1.00419 9.22165C0.872648 9.52662 0.804969 9.85514 0.805299 10.1871V19.2418C0.805731 19.8882 1.0637 20.508 1.52249 20.965C1.98128 21.4219 2.60336 21.6786 3.25197 21.6786H5.69864C6.34754 21.6786 6.96986 21.4217 7.4287 20.9644C7.88754 20.5071 8.14532 19.8869 8.14532 19.2402V15.1761C8.14532 14.9605 8.23124 14.7538 8.38419 14.6014C8.53713 14.4489 8.74457 14.3633 8.96087 14.3633H12.2231C12.4394 14.3633 12.6468 14.4489 12.7998 14.6014C12.9527 14.7538 13.0387 14.9605 13.0387 15.1761V19.2402C13.0387 19.8869 13.2964 20.5071 13.7553 20.9644C14.2141 21.4217 14.8364 21.6786 15.4853 21.6786H17.932C18.5809 21.6786 19.2032 21.4217 19.6621 20.9644C20.1209 20.5071 20.3787 19.8869 20.3787 19.2402V10.1855C20.3786 9.85367 20.3105 9.52538 20.1787 9.22071C20.0469 8.91603 19.8541 8.64137 19.6121 8.41354L11.7126 0.968199V0.971451Z" fill="#BEDE61"/>
</g>
<g id="Rectangle 27" filter="url(#filter1_d_202_2)">
<rect x="-20.5212" y="-255.583" width="293.224" height="90.3707" rx="9.6139" fill="#30312D"/>
</g>
<g id="Group 59">
<g id="Rectangle 27_2" filter="url(#filter2_d_202_2)">
<rect x="-20.5212" y="-151.583" width="293.224" height="90.3707" rx="9.6139" fill="#30312D"/>
</g>
</g>
</g>
</g>
<defs>
<filter id="filter0_ddddddd_202_2" x="-170.442" y="-806.543" width="599.884" height="1024.88" filterUnits="userSpaceOnUse" color-interpolation-filters="sRGB">
<feFlood flood-opacity="0" result="BackgroundImageFix"/>
<feColorMatrix in="SourceAlpha" type="matrix" values="0 0 0 0 0 0 0 0 0 0 0 0 0 0 0 0 0 0 127 0" result="hardAlpha"/>
<feOffset dy="1.62884"/>
<feGaussianBlur stdDeviation="2.3187"/>
<feColorMatrix type="matrix" values="0 0 0 0 0 0 0 0 0 0 0 0 0 0 0 0 0 0 0.0671069 0"/>
<feBlend mode="normal" in2="BackgroundImageFix" result="effect1_dropShadow_202_2"/>
<feColorMatrix in="SourceAlpha" type="matrix" values="0 0 0 0 0 0 0 0 0 0 0 0 0 0 0 0 0 0 127 0" result="hardAlpha"/>
<feOffset dy="3.70085"/>
<feGaussianBlur stdDeviation="5.26827"/>
<feColorMatrix type="matrix" values="0 0 0 0 0 0 0 0 0 0 0 0 0 0 0 0 0 0 0.0975551 0"/>
<feBlend mode="normal" in2="effect1_dropShadow_202_2" result="effect2_dropShadow_202_2"/>
<feColorMatrix in="SourceAlpha" type="matrix" values="0 0 0 0 0 0 0 0 0 0 0 0 0 0 0 0 0 0 127 0" result="hardAlpha"/>
<feOffset dy="6.44117"/>
<feGaussianBlur stdDeviation="9.16919"/>
<feColorMatrix type="matrix" values="0 0 0 0 0 0 0 0 0 0 0 0 0 0 0 0 0 0 0.120149 0"/>
<feBlend mode="normal" in2="effect2_dropShadow_202_2" result="effect3_dropShadow_202_2"/>
<feColorMatrix in="SourceAlpha" type="matrix" values="0 0 0 0 0 0 0 0 0 0 0 0 0 0 0 0 0 0 127 0" result="hardAlpha"/>
<feOffset dy="10.2324"/>
<feGaussianBlur stdDeviation="14.5661"/>
<feColorMatrix type="matrix" values="0 0 0 0 0 0 0 0 0 0 0 0 0 0 0 0 0 0 0.14 0"/>
<feBlend mode="normal" in2="effect3_dropShadow_202_2" result="effect4_dropShadow_202_2"/>
<feColorMatrix in="SourceAlpha" type="matrix" values="0 0 0 0 0 0 0 0 0 0 0 0 0 0 0 0 0 0 127 0" result="hardAlpha"/>
<feOffset dy="15.7878"/>
<feGaussianBlur stdDeviation="22.4744"/>
<feColorMatrix type="matrix" values="0 0 0 0 0 0 0 0 0 0 0 0 0 0 0 0 0 0 0.159851 0"/>
<feBlend mode="normal" in2="effect4_dropShadow_202_2" result="effect5_dropShadow_202_2"/>
<feColorMatrix in="SourceAlpha" type="matrix" values="0 0 0 0 0 0 0 0 0 0 0 0 0 0 0 0 0 0 127 0" result="hardAlpha"/>
<feOffset dy="24.6356"/>
<feGaussianBlur stdDeviation="35.0695"/>
<feColorMatrix type="matrix" values="0 0 0 0 0 0 0 0 0 0 0 0 0 0 0 0 0 0 0.182445 0"/>
<feBlend mode="normal" in2="effect5_dropShadow_202_2" result="effect6_dropShadow_202_2"/>
<feColorMatrix in="SourceAlpha" type="matrix" values="0 0 0 0 0 0 0 0 0 0 0 0 0 0 0 0 0 0 127 0" result="hardAlpha"/>
<feOffset dy="40.899"/>
<feGaussianBlur stdDeviation="58.2209"/>
<feColorMatrix type="matrix" values="0 0 0 0 0 0 0 0 0 0 0 0 0 0 0 0 0 0 0.212893 0"/>
<feBlend mode="normal" in2="effect6_dropShadow_202_2" result="effect7_dropShadow_202_2"/>
<feBlend mode="normal" in="SourceGraphic" in2="effect7_dropShadow_202_2" result="shape"/>
</filter>
<filter id="filter1_d_202_2" x="-97.4324" y="-255.583" width="447.046" height="263.421" filterUnits="userSpaceOnUse" color-interpolation-filters="sRGB">
<feFlood flood-opacity="0" result="BackgroundImageFix"/>
<feColorMatrix in="SourceAlpha" type="matrix" values="0 0 0 0 0 0 0 0 0 0 0 0 0 0 0 0 0 0 127 0" result="hardAlpha"/>
<feOffset dy="96.139"/>
<feGaussianBlur stdDeviation="38.4556"/>
<feColorMatrix type="matrix" values="0 0 0 0 0.768627 0 0 0 0 0.768627 0 0 0 0 0.768627 0 0 0 0.07 0"/>
<feBlend mode="normal" in2="BackgroundImageFix" result="effect1_dropShadow_202_2"/>
<feBlend mode="normal" in="SourceGraphic" in2="effect1_dropShadow_202_2" result="shape"/>
</filter>
<filter id="filter2_d_202_2" x="-97.4324" y="-151.583" width="447.046" height="263.421" filterUnits="userSpaceOnUse" color-interpolation-filters="sRGB">
<feFlood flood-opacity="0" result="BackgroundImageFix"/>
<feColorMatrix in="SourceAlpha" type="matrix" values="0 0 0 0 0 0 0 0 0 0 0 0 0 0 0 0 0 0 127 0" result="hardAlpha"/>
<feOffset dy="96.139"/>
<feGaussianBlur stdDeviation="38.4556"/>
<feColorMatrix type="matrix" values="0 0 0 0 0.768627 0 0 0 0 0.768627 0 0 0 0 0.768627 0 0 0 0.07 0"/>
<feBlend mode="normal" in2="BackgroundImageFix" result="effect1_dropShadow_202_2"/>
<feBlend mode="normal" in="SourceGraphic" in2="effect1_dropShadow_202_2" result="shape"/>
</filter>
<clipPath id="clip0_202_2">
<rect x="-54" y="-731" width="367" height="792" rx="43.2625" fill="white"/>
</clipPath>
</defs>
</svg>
